<?xml version="1.0" encoding="UTF-8" standalone="no"?>
<!-- Created with Inkscape (http://www.inkscape.org/) -->

<svg
   width="25.188301mm"
   height="14.393404mm"
   viewBox="0 0 25.188301 14.393404"
   version="1.1"
   id="svg5"
   inkscape:version="1.1.1 (3bf5ae0d25, 2021-09-20)"
   sodipodi:docname="Biro Klasifikasi Indonesia logo 2021.svg"
   xmlns:inkscape="http://www.inkscape.org/namespaces/inkscape"
   xmlns:sodipodi="http://sodipodi.sourceforge.net/DTD/sodipodi-0.dtd"
   xmlns="http://www.w3.org/2000/svg"
   xmlns:svg="http://www.w3.org/2000/svg">
  <sodipodi:namedview
     id="namedview7"
     pagecolor="#ffffff"
     bordercolor="#666666"
     borderopacity="1.0"
     inkscape:pageshadow="2"
     inkscape:pageopacity="0.0"
     inkscape:pagecheckerboard="0"
     inkscape:document-units="mm"
     showgrid="false"
     fit-margin-top="0"
     fit-margin-left="0"
     fit-margin-right="0"
     fit-margin-bottom="0"
     inkscape:zoom="6.1148148"
     inkscape:cx="63.370685"
     inkscape:cy="60.09994"
     inkscape:window-width="1920"
     inkscape:window-height="1017"
     inkscape:window-x="-8"
     inkscape:window-y="-8"
     inkscape:window-maximized="1"
     inkscape:current-layer="layer1" />
  <defs
     id="defs2" />
  <g
     inkscape:label="Layer 1"
     inkscape:groupmode="layer"
     id="layer1"
     transform="translate(-79.677159,-71.596567)">
    <path
       d="m 96.017754,80.528971 h -2.074298 v 1.016 l 4.021702,4.402596 h 3.132592 z"
       style="fill:#0a436a;fill-opacity:1;fill-rule:nonzero;stroke:none;stroke-width:0.352778"
       id="path1200" />
    <path
       d="m 91.361158,71.596567 h 2.624596 v 14.393404 h -2.624596 z"
       style="fill:#0a436a;fill-opacity:1;fill-rule:nonzero;stroke:none;stroke-width:0.352778"
       id="path1202" />
    <path
       d="m 103.29916,71.596567 c -0.80441,0 -1.6087,0.550404 -1.6087,1.566404 0,1.016 0.80429,1.566298 1.6087,1.566298 0.762,0 1.5663,-0.550298 1.5663,-1.566298 0,-1.016 -0.8043,-1.566404 -1.5663,-1.566404"
       style="fill:#0a436a;fill-opacity:1;fill-rule:nonzero;stroke:none;stroke-width:0.352778"
       id="path1204" />
    <path
       d="m 101.90216,75.872269 h 2.794 v 10.117702 h -2.794 z"
       style="fill:#0a436a;fill-opacity:1;fill-rule:nonzero;stroke:none;stroke-width:0.352778"
       id="path1206" />
    <path
       d="m 91.826755,78.242971 h -0.211597 c -0.211702,0 -0.296403,0.211596 -0.169403,0.338596 l 2.497701,2.963404 h 3.005702 l -1.566404,-1.735702 c -0.889,-1.016 -2.201298,-1.566298 -3.555999,-1.566298"
       style="fill:#f15a25;fill-opacity:1;fill-rule:nonzero;stroke:none;stroke-width:0.352778"
       id="path1208" />
    <path
       d="m 100.50516,75.872269 c -1.481704,0 -2.921002,0.719702 -3.810002,1.905 l -2.751702,3.767702 h 3.005702 l 2.836298,-4.106404 0.889004,-1.227596 c 0.127,-0.127 0,-0.338702 -0.1693,-0.338702"
       style="fill:#fbbf11;fill-opacity:1;fill-rule:nonzero;stroke:none;stroke-width:0.352778"
       id="path1210" />
    <path
       d="m 85.349755,75.829971 c -0.508,0 -1.185298,0.169298 -1.735596,0.381 -0.423404,0.211596 -1.016,0.508 -1.354702,1.016 v -5.630404 h -2.582298 v 14.351 h 2.582298 v -1.397 c 0.846702,1.185404 2.074298,1.397 3.005702,1.397 3.005596,0 4.995297,-2.032 4.995297,-5.037596 0,-3.132702 -1.904999,-5.08 -4.910701,-5.08 z m 2.751702,5.08 c 0,1.651 -1.185298,3.005596 -2.667,3.005596 -1.481702,0 -2.667,-1.354596 -2.667,-3.005596 0,-1.651 1.185298,-3.005702 2.667,-3.005702 1.481702,0 2.667,1.354702 2.667,3.005702"
       style="fill:#0a436a;fill-opacity:1;fill-rule:nonzero;stroke:none;stroke-width:0.352778"
       id="path1212" />
  </g>
</svg>
