<svg width="184" height="76" viewBox="0 0 184 76" fill="none" xmlns="http://www.w3.org/2000/svg">
<g clip-path="url(#clip0_251_22714)">
<path fill-rule="evenodd" clip-rule="evenodd" d="M14.8223 68.0381C18.9644 68.0381 22.3223 64.6802 22.3223 60.5381C22.3223 56.396 18.9644 53.0381 14.8223 53.0381C10.6801 53.0381 7.32227 56.396 7.32227 60.5381C7.32227 64.6802 10.6801 68.0381 14.8223 68.0381Z" fill="#EB6F25"/>
<path fill-rule="evenodd" clip-rule="evenodd" d="M139.832 51.9922C143.974 51.9922 147.332 48.6343 147.332 44.4922C147.332 40.3501 143.974 36.9922 139.832 36.9922C135.69 36.9922 132.332 40.3501 132.332 44.4922C132.332 48.6343 135.69 51.9922 139.832 51.9922Z" fill="#2EB573"/>
<path d="M136.809 23.0352V1.03516H143.309V23.0352H136.809Z" fill="white"/>
<path d="M161.309 41.5352H183.809V48.0352H161.309V41.5352Z" fill="white"/>
<path d="M152.725 27.1358L168.726 11.2168L173.31 15.825L157.31 31.7439L152.725 27.1358Z" fill="white"/>
<path fill-rule="evenodd" clip-rule="evenodd" d="M14.8086 75.0352C22.8167 75.0352 29.3086 68.5433 29.3086 60.5352C29.3086 52.527 22.8167 46.0352 14.8086 46.0352C6.80046 46.0352 0.308594 52.527 0.308594 60.5352C0.308594 68.5433 6.80046 75.0352 14.8086 75.0352ZM14.8086 68.0352C18.9507 68.0352 22.3086 64.6773 22.3086 60.5352C22.3086 56.393 18.9507 53.0352 14.8086 53.0352C10.6665 53.0352 7.30859 56.393 7.30859 60.5352C7.30859 64.6773 10.6665 68.0352 14.8086 68.0352Z" fill="white"/>
<path d="M56.3086 64.0352H27.8086V57.5352H53.8086C63.8086 57.5352 67.8086 41.5352 81.3086 41.5352H126.809V48.0352H82.8086C71.3482 48.0352 68.3086 64.0352 56.3086 64.0352Z" fill="white"/>
<path fill-rule="evenodd" clip-rule="evenodd" d="M139.809 59.0352C147.817 59.0352 154.309 52.5433 154.309 44.5352C154.309 36.527 147.817 30.0352 139.809 30.0352C131.8 30.0352 125.309 36.527 125.309 44.5352C125.309 52.5433 131.8 59.0352 139.809 59.0352ZM139.809 52.0352C143.951 52.0352 147.309 48.6773 147.309 44.5352C147.309 40.393 143.951 37.0352 139.809 37.0352C135.666 37.0352 132.309 40.393 132.309 44.5352C132.309 48.6773 135.666 52.0352 139.809 52.0352Z" fill="white"/>
<path fill-rule="evenodd" clip-rule="evenodd" d="M14.8086 75.0352C22.8167 75.0352 29.3086 68.5433 29.3086 60.5352C29.3086 52.527 22.8167 46.0352 14.8086 46.0352C6.80046 46.0352 0.308594 52.527 0.308594 60.5352C0.308594 68.5433 6.80046 75.0352 14.8086 75.0352ZM14.8086 68.0352C18.9507 68.0352 22.3086 64.6773 22.3086 60.5352C22.3086 56.393 18.9507 53.0352 14.8086 53.0352C10.6665 53.0352 7.30859 56.393 7.30859 60.5352C7.30859 64.6773 10.6665 68.0352 14.8086 68.0352Z" fill="white"/>
</g>
<defs>
<clipPath id="clip0_251_22714">
<rect width="184" height="75" fill="white" transform="translate(0 0.5)"/>
</clipPath>
</defs>
</svg>
